<svg width="512" height="512" viewBox="0 0 512 512" fill="none" xmlns="http://www.w3.org/2000/svg">
  <!-- Background with gradient -->
  <rect width="512" height="512" rx="96" fill="url(#gradient)"/>

  <!-- S letter -->
  <path d="M180 180C180 150 205 130 245 130C285 130 310 150 310 180C310 200 300 215 275 225L220 245C185 260 165 285 165 320C165 365 200 395 255 395C310 395 345 365 345 320" stroke="white" stroke-width="40" stroke-linecap="round" fill="none"/>

  <!-- F letter -->
  <path d="M390 130L390 395M390 130L500 130M390 262L480 262" stroke="white" stroke-width="40" stroke-linecap="round" stroke-linejoin="round"/>

  <!-- Gradient definition -->
  <defs>
    <linearGradient id="gradient" x1="0" y1="0" x2="512" y2="512" gradientUnits="userSpaceOnUse">
      <stop offset="0%" stop-color="#3b82f6"/>
      <stop offset="100%" stop-color="#8b5cf6"/>
    </linearGradient>
  </defs>
</svg>
